<?xml version="1.0" encoding="UTF-8" standalone="no"?>
<!-- Generator: Adobe Illustrator 16.0.3, SVG Export Plug-In . SVG Version: 6.00 Build 0)  -->

<svg
   version="1.1"
   id="Ebene_1"
   x="0px"
   y="0px"
   width="128.95992mm"
   height="68.03936mm"
   viewBox="0 0 487.40756 257.15662"
   enable-background="new 0 0 858.898 1207.56"
   xml:space="preserve"
   sodipodi:docname="Sponsoren (1).svg"
   inkscape:version="1.1.2 (b8e25be833, 2022-02-05)"
   xmlns:inkscape="http://www.inkscape.org/namespaces/inkscape"
   xmlns:sodipodi="http://sodipodi.sourceforge.net/DTD/sodipodi-0.dtd"
   xmlns="http://www.w3.org/2000/svg"
   xmlns:svg="http://www.w3.org/2000/svg"><defs
   id="defs175"><clipPath
     clipPathUnits="userSpaceOnUse"
     id="clipPath4061"><path
       d="M 0,1207.56 H 858.898 V 0 H 0 Z"
       id="path4059" /></clipPath><clipPath
     clipPathUnits="userSpaceOnUse"
     id="clipPath4109"><path
       d="M 368.129,21.155 H 493.172 V 87.128 H 368.129 Z"
       id="path4107" /></clipPath><clipPath
     clipPathUnits="userSpaceOnUse"
     id="clipPath4129"><path
       d="M 0,1207.56 H 858.898 V 0 H 0 Z"
       id="path4127" /></clipPath></defs><sodipodi:namedview
   id="namedview173"
   pagecolor="#ffffff"
   bordercolor="#666666"
   borderopacity="1.0"
   inkscape:pageshadow="2"
   inkscape:pageopacity="0.0"
   inkscape:pagecheckerboard="0"
   showgrid="false"
   units="mm"
   inkscape:zoom="0.24330291"
   inkscape:cx="228.11072"
   inkscape:cy="863.12163"
   inkscape:window-width="1920"
   inkscape:window-height="1017"
   inkscape:window-x="-8"
   inkscape:window-y="-8"
   inkscape:window-maximized="1"
   inkscape:current-layer="Ebene_1"
   inkscape:snap-global="false"
   inkscape:document-units="mm"
   inkscape:showpageshadow="2"
   inkscape:deskcolor="#d1d1d1" />





<g
   id="g4332"
   transform="matrix(2.9234305,0,0,2.9234305,3945.836,-1019.0461)"><g
     id="g4055"
     transform="matrix(1.3333333,0,0,-1.3333333,-1840.5661,464.74954)"><g
       id="g4057"
       clip-path="url(#clipPath4061)"><g
         id="g4063"
         transform="translate(382.5986,29.9385)"><path
           d="m 0,0 -0.187,-1.078 c 0,0 -1.886,-2.254 -4.169,-2.254 -2.498,0.023 -2.075,2.47 -2.075,2.47 l 0.81,4.775 C -8.323,3.89 -9.649,3.444 -10.251,3.151 l -1.078,-6.206 h -3.141 l 2.608,15.006 c 0,0 0.117,0.487 -0.258,0.487 h -0.722 l 0.283,1.591 h 4.193 L -9.767,6.055 h 4.521 l 1.403,7.974 h 3.121 c 0,0 -2.45,-14.099 -2.546,-14.68 C -3.565,-2.381 0,0 0,0"
           style="fill:#254ba1;fill-opacity:1;fill-rule:nonzero;stroke:none"
           id="path4065" /></g><g
         id="g4067"
         transform="translate(394.8018,29.9385)"><path
           d="m 0,0 -0.183,-1.078 c 0,0 -1.885,-2.281 -4.194,-2.281 -1.07,0.027 -1.609,0.492 -1.866,1.008 -0.833,-0.633 -1.77,-0.981 -2.727,-0.981 -2.65,0 -4.405,2.868 -3.892,6.407 0.513,3.562 3.1,6.429 5.758,6.429 0.888,0 1.68,-0.328 2.302,-0.862 l 0.12,0.581 h 3.148 c 0,0 -1.654,-9.508 -1.728,-9.903 C -3.558,-2.381 0,0 0,0 m -7.36,-1.308 c 0.304,0 0.606,0.094 0.915,0.23 v 0.216 l 1.443,8.203 c -0.375,0.35 -0.797,0.552 -1.284,0.552 -1.54,0 -3.03,-2.045 -3.336,-4.583 -0.3,-2.54 0.702,-4.618 2.262,-4.618"
           style="fill:#254ba1;fill-opacity:1;fill-rule:nonzero;stroke:none"
           id="path4069" /></g><g
         id="g4071"
         transform="translate(401.1436,30.5)"><path
           d="m 0,0 -0.209,-1.095 c 0,0 -1.215,-1.449 -2.819,-2.263 4.655,-2.284 1.585,-5.987 -2.661,-5.987 -2.493,0.02 -2.076,2.471 -2.076,2.471 l 3.36,19.196 c 0,0 0.136,0.492 -0.258,0.492 h -0.722 l 0.283,1.58 h 4.193 -0.023 0.023 c 0,0 -1.68,-9.641 -2.776,-15.893 C -2.867,-2.173 0,0 0,0 m -4.076,-3.8 c -0.309,-1.654 -0.491,-2.756 -0.519,-2.896 0.348,-0.881 1.845,0.056 1.908,1.242 0.077,1.049 -1.089,1.533 -1.389,1.654"
           style="fill:#254ba1;fill-opacity:1;fill-rule:nonzero;stroke:none"
           id="path4073" /></g><g
         id="g4075"
         transform="translate(403.3555,30.333)"><path
           d="m 0,0 c 1.305,-2.816 5.777,-2.049 8.853,1.256 -0.042,0.047 0,-1.326 -0.071,-1.721 -1.325,-1.584 -3.684,-3.26 -7.008,-3.26 -3.081,0 -6.04,1.601 -5.292,6.453 0.555,3.543 3.192,6.241 6.313,6.405 C 4.73,9.203 7.504,8.158 7.129,4.969 6.732,1.541 0,0 0,0 M 4.473,6.084 C 4.31,6.828 3.517,7.32 2.749,7.151 1.839,6.964 1.187,6.176 0.726,5.426 0.047,4.315 -0.354,3.009 -0.211,1.676 1.067,2.025 2.122,2.4 3.283,3.19 3.96,3.659 4.427,4.594 4.497,5.453 c 0.025,0.207 0,0.422 -0.024,0.631"
           style="fill:#254ba1;fill-opacity:1;fill-rule:nonzero;stroke:none"
           id="path4077" /></g><g
         id="g4079"
         transform="translate(423.7642,29.9385)"><path
           d="m 0,0 -0.182,-1.096 c 0,0 -1.891,-2.263 -4.193,-2.263 -2.471,0.05 -2.049,2.497 -2.049,2.497 0.457,2.77 1.25,7.292 1.327,7.686 0.274,1.52 -2.451,-0.046 -3.059,-0.416 l -1.626,-9.463 h -3.146 l 1.768,10.208 c 0,0 0.118,0.462 -0.257,0.462 h -0.724 l 0.285,1.608 h 4.191 L -7.806,8.454 c 0.493,0.306 1.936,1.05 3.797,1.05 2.496,-0.024 2.073,-2.465 2.073,-2.465 L -3.262,-0.68 C -3.567,-2.381 0,0 0,0"
           style="fill:#254ba1;fill-opacity:1;fill-rule:nonzero;stroke:none"
           id="path4081" /></g><g
         id="g4083"
         transform="translate(436.0225,30.0283)"><path
           d="m 0,0 -0.207,-1.187 c 0,0 -1.563,-2.235 -3.872,-2.235 -1.325,0 -1.817,0.998 -1.911,1.186 -0.579,1.56 -1.328,3.683 -1.861,5.239 C -8.249,2.845 -8.574,2.704 -8.833,2.588 l -0.976,-5.733 h -3.15 l 2.755,15.939 c 0,0 0.117,0.492 -0.258,0.492 h -0.726 l 0.283,1.579 h 4.196 L -8.366,5.312 c 0.79,0.584 2.448,1.915 3.473,3.821 H -1.56 C -1.935,7.151 -3.566,5.592 -5.222,4.475 l 1.818,-5.196 C -2.586,-2.512 0,0 0,0"
           style="fill:#254ba1;fill-opacity:1;fill-rule:nonzero;stroke:none"
           id="path4085" /></g><g
         id="g4087"
         transform="translate(447.5742,29.9385)"><path
           d="m 0,0 -0.182,-1.078 c 0,0 -1.893,-2.281 -4.196,-2.281 -1.074,0.027 -1.607,0.492 -1.865,1.008 -0.834,-0.633 -1.77,-0.981 -2.726,-0.981 -2.653,0 -4.4,2.868 -3.891,6.407 0.511,3.562 3.099,6.429 5.755,6.429 0.883,0 1.68,-0.328 2.305,-0.862 l 0.117,0.581 h 3.149 c 0,0 -1.652,-9.508 -1.728,-9.903 C -3.562,-2.381 0,0 0,0 m -7.362,-1.308 c 0.306,0 0.605,0.094 0.91,0.23 v 0.216 l 1.449,8.203 c -0.373,0.35 -0.791,0.552 -1.283,0.552 -1.539,0 -3.033,-2.045 -3.336,-4.583 -0.297,-2.54 0.7,-4.618 2.26,-4.618 m 0.701,11.468 c -0.789,0 -1.301,0.627 -1.164,1.416 0.138,0.797 0.888,1.449 1.678,1.449 0.793,0 1.326,-0.652 1.187,-1.449 -0.141,-0.789 -0.909,-1.416 -1.701,-1.416 m 3.914,0 c -0.793,0 -1.306,0.627 -1.186,1.416 0.138,0.797 0.907,1.449 1.7,1.449 0.791,0 1.303,-0.652 1.163,-1.449 -0.138,-0.789 -0.885,-1.416 -1.677,-1.416"
           style="fill:#254ba1;fill-opacity:1;fill-rule:nonzero;stroke:none"
           id="path4089" /></g><g
         id="g4091"
         transform="translate(455.9395,27.9795)"><path
           d="m 0,0 c -1.418,-1.65 -10.044,-2.775 -9.39,1.865 0.212,1.469 2.869,2.422 3.847,2.771 -0.07,0.117 -2.074,2.399 -2.637,3.307 -0.506,0.84 -0.277,2.007 0.583,2.617 0.675,0.44 2.054,1.559 8.019,0.392 C 0.373,10.624 0.068,9.089 0,8.719 -0.187,8.854 -3.191,9.852 -4.26,9.574 -5.287,9.316 -4.238,8.014 -3.865,7.523 -3.094,6.525 -0.535,3.262 0.117,2.402 0.63,1.701 0.541,0.652 0,0 m -3.053,1.237 c -0.07,0.117 -0.693,0.982 -1.422,1.98 -3.281,-1.256 -1.511,-3.076 0.166,-3.03 1.118,0.042 1.748,0.282 1.256,1.05"
           style="fill:#254ba1;fill-opacity:1;fill-rule:nonzero;stroke:none"
           id="path4093" /></g><g
         id="g4095"
         transform="translate(460.2256,30.333)"><path
           d="m 0,0 c 1.306,-2.816 5.777,-2.049 8.858,1.256 -0.046,0.047 0,-1.326 -0.078,-1.721 -1.321,-1.584 -3.674,-3.26 -7.01,-3.26 -3.074,0 -6.03,1.601 -5.287,6.453 0.563,3.543 3.192,6.241 6.312,6.405 C 4.731,9.203 7.501,8.158 7.13,4.969 6.731,1.541 0,0 0,0 M 4.477,6.084 C 4.313,6.828 3.517,7.32 2.754,7.151 1.843,6.964 1.188,6.176 0.722,5.426 0.05,4.315 -0.347,3.009 -0.208,1.676 1.075,2.025 2.122,2.4 3.287,3.19 c 0.675,0.469 1.14,1.404 1.208,2.263 0.023,0.207 0,0.422 -0.018,0.631"
           style="fill:#254ba1;fill-opacity:1;fill-rule:nonzero;stroke:none"
           id="path4097" /></g><g
         id="g4099"
         transform="translate(476.75,39.4424)"><path
           d="m 0,0 c -0.076,-0.328 -0.283,-1.7 -0.399,-2.28 -2.423,0 -3.472,-0.587 -3.914,-1.099 l -1.589,-9.18 h -3.143 l 1.774,10.208 c 0,0 0.113,0.486 -0.262,0.486 h -0.723 l 0.279,1.586 h 4.196 L -3.92,-1.002 C -3.197,-0.486 -1.984,0 0,0"
           style="fill:#254ba1;fill-opacity:1;fill-rule:nonzero;stroke:none"
           id="path4101" /></g></g></g><g
     id="g4103"
     transform="matrix(1.3333333,0,0,-1.3333333,-1840.5661,464.74954)"><g
       id="g4105"
       clip-path="url(#clipPath4109)"><g
         id="g4111"
         transform="translate(478.7285,30.333)"><path
           d="m 0,0 c 1.303,-2.816 5.771,-2.049 8.849,1.256 -0.046,0.047 0,-1.326 -0.068,-1.721 -1.33,-1.584 -3.682,-3.26 -7.011,-3.26 -3.076,0 -6.038,1.601 -5.288,6.453 0.555,3.543 3.192,6.241 6.313,6.405 C 4.724,9.203 7.498,8.158 7.129,4.969 6.734,1.541 0,0 0,0 M 4.469,6.084 C 4.307,6.828 3.517,7.32 2.744,7.151 1.836,6.964 1.186,6.176 0.722,5.426 0.041,4.315 -0.354,3.009 -0.216,1.676 1.067,2.025 2.115,2.4 3.282,3.19 c 0.673,0.469 1.144,1.404 1.213,2.263 0.028,0.207 0,0.422 -0.026,0.631"
           style="fill:#254ba1;fill-opacity:1;fill-rule:nonzero;stroke:none"
           id="path4113" /></g><g
         id="g4115"
         transform="translate(491.6318,39.1611)"><path
           d="m 0,0 c 0,0 -1.605,-9.291 -1.723,-9.874 -0.304,-1.729 3.264,0.653 3.264,0.653 l -0.187,-1.08 c 0,0 -1.867,-2.254 -4.172,-2.254 -2.496,0.024 -2.075,2.47 -2.075,2.47 l 1.398,8.015 c 0,0 0.117,0.464 -0.258,0.464 H -4.468 L -4.192,0 Z m -1.304,0.605 c -0.794,0 -1.327,0.631 -1.186,1.427 0.137,0.79 0.885,1.442 1.677,1.442 0.791,0 1.328,-0.652 1.187,-1.442 C 0.234,1.236 -0.533,0.605 -1.304,0.605"
           style="fill:#254ba1;fill-opacity:1;fill-rule:nonzero;stroke:none"
           id="path4117" /></g><g
         id="g4119"
         transform="translate(443.5801,81.8281)"><path
           d="M 0,0 V 3.604 C 0,4.541 -0.763,5.3 -1.7,5.3 h -11.231 -11.226 c -0.936,0 -1.701,-0.759 -1.701,-1.696 V -14.59 c 0,-2.231 0.567,-4.324 1.563,-6.152 0.447,-0.835 0.994,-1.601 1.607,-2.312 2.37,-2.734 5.866,-4.461 9.757,-4.461 3.919,0 7.429,1.748 9.803,4.508 0.356,0.418 0.68,0.846 0.979,1.295 1.311,1.978 2.096,4.334 2.144,6.865 C 0,-14.759 0,-14.673 0,-14.59 v 7.898 c -1.834,0.012 -3.319,1.504 -3.319,3.346 0,1.835 1.485,3.335 3.319,3.346 m -8.583,0.032 c 1.147,0 2.072,-0.928 2.072,-2.07 0,-1.145 -0.925,-2.072 -2.072,-2.072 -1.141,0 -2.074,0.927 -2.074,2.072 0,1.142 0.933,2.07 2.074,2.07 m 2.867,-6.635 c 1.006,0 1.82,-0.804 1.82,-1.812 0,-1.006 -0.814,-1.814 -1.82,-1.814 -0.996,0 -1.81,0.808 -1.81,1.814 0,1.008 0.814,1.812 1.81,1.812 m -4.456,-2.929 c 0.615,0 1.112,-0.498 1.112,-1.115 0,-0.615 -0.497,-1.118 -1.112,-1.118 -0.62,0 -1.122,0.503 -1.122,1.118 0,0.617 0.502,1.115 1.122,1.115 M -24.267,3.604 c 0,0.052 0.054,0.104 0.11,0.104 h 11.226 v -16.902 c -0.162,-0.092 -0.305,-0.182 -0.439,-0.271 -0.373,-0.253 -0.617,-0.411 -1.197,-0.411 -0.578,0 -0.829,0.158 -1.199,0.411 -0.457,0.298 -1.018,0.669 -2.077,0.669 -1.061,0 -1.62,-0.371 -2.08,-0.669 -0.368,-0.253 -0.614,-0.411 -1.192,-0.411 -0.577,0 -0.829,0.158 -1.198,0.411 -0.434,0.286 -0.978,0.633 -1.954,0.665 z m 11.336,-29.526 c -2.748,0 -5.273,0.989 -7.237,2.625 0.491,0.126 0.833,0.352 1.132,0.548 0.371,0.254 0.615,0.413 1.193,0.413 0.576,0 0.822,-0.164 1.197,-0.413 0.453,-0.293 1.021,-0.668 2.079,-0.668 1.058,0 1.625,0.375 2.076,0.668 0.373,0.249 0.617,0.413 1.197,0.413 0.576,0 0.823,-0.159 1.198,-0.413 0.451,-0.293 1.02,-0.668 2.077,-0.668 1.061,0 1.621,0.375 2.079,0.668 0.375,0.249 0.621,0.413 1.199,0.413 h 0.07 c -2.07,-2.206 -5.003,-3.586 -8.26,-3.586 m 9.381,4.978 c -0.312,0.121 -0.699,0.202 -1.191,0.202 -1.059,0 -1.627,-0.375 -2.079,-0.674 -0.375,-0.245 -0.621,-0.41 -1.199,-0.41 -0.576,0 -0.829,0.165 -1.198,0.41 -0.454,0.299 -1.019,0.674 -2.077,0.674 -1.06,0 -1.626,-0.375 -2.076,-0.674 -0.373,-0.245 -0.617,-0.41 -1.197,-0.41 -0.578,0 -0.829,0.165 -1.199,0.41 -0.452,0.299 -1.018,0.674 -2.077,0.674 -1.061,0 -1.62,-0.375 -2.08,-0.674 -0.368,-0.245 -0.614,-0.41 -1.192,-0.41 -0.252,0 -0.434,0.029 -0.594,0.085 -0.774,0.946 -1.401,2.024 -1.838,3.187 0.117,-0.061 0.225,-0.136 0.354,-0.22 0.452,-0.301 1.013,-0.676 2.078,-0.676 1.059,0 1.619,0.375 2.079,0.676 0.371,0.253 0.615,0.412 1.193,0.412 0.576,0 0.822,-0.159 1.197,-0.412 0.453,-0.301 1.021,-0.676 2.079,-0.676 1.058,0 1.625,0.375 2.076,0.676 0.373,0.253 0.617,0.412 1.197,0.412 0.576,0 0.823,-0.159 1.198,-0.412 0.451,-0.301 1.02,-0.676 2.077,-0.676 1.061,0 1.621,0.375 2.079,0.676 0.375,0.253 0.621,0.412 1.199,0.412 0.578,0 0.824,-0.159 1.196,-0.412 0.253,-0.163 0.545,-0.351 0.938,-0.492 -0.269,-0.586 -0.583,-1.142 -0.943,-1.678 m 1.92,5.478 c -0.064,-0.797 -0.204,-1.564 -0.422,-2.305 -0.22,0.07 -0.396,0.182 -0.614,0.328 -0.45,0.304 -1.017,0.679 -2.075,0.679 -1.059,0 -1.627,-0.375 -2.079,-0.679 -0.375,-0.249 -0.621,-0.411 -1.199,-0.411 -0.576,0 -0.829,0.162 -1.198,0.411 -0.454,0.304 -1.019,0.679 -2.077,0.679 -1.06,0 -1.626,-0.375 -2.076,-0.679 -0.373,-0.249 -0.617,-0.411 -1.197,-0.411 -0.578,0 -0.829,0.162 -1.199,0.411 -0.452,0.304 -1.018,0.679 -2.077,0.679 -1.061,0 -1.62,-0.375 -2.08,-0.679 -0.368,-0.249 -0.614,-0.411 -1.192,-0.411 -0.577,0 -0.829,0.162 -1.198,0.411 -0.401,0.266 -0.893,0.596 -1.732,0.657 -0.144,0.715 -0.222,1.443 -0.222,2.196 v 0.198 c 0.496,-0.017 0.733,-0.183 1.074,-0.404 0.452,-0.298 1.013,-0.673 2.078,-0.673 1.059,0 1.619,0.375 2.075,0.673 0.375,0.244 0.619,0.404 1.197,0.404 0.576,0 0.828,-0.16 1.197,-0.404 0.453,-0.298 1.021,-0.673 2.079,-0.673 1.058,0 1.625,0.375 2.076,0.673 0.373,0.244 0.617,0.404 1.197,0.404 0.58,0 0.826,-0.16 1.198,-0.404 0.451,-0.298 1.02,-0.673 2.077,-0.673 1.061,0 1.621,0.375 2.079,0.673 0.375,0.244 0.621,0.404 1.199,0.404 0.578,0 0.824,-0.16 1.196,-0.404 0.429,-0.285 0.962,-0.633 1.915,-0.67 M -3.964,0.993 c -0.612,0 -1.109,0.496 -1.109,1.111 0,0.624 0.497,1.12 1.109,1.12 0.621,0 1.125,-0.496 1.125,-1.12 0,-0.615 -0.504,-1.111 -1.125,-1.111"
           style="fill:#254ba1;fill-opacity:1;fill-rule:nonzero;stroke:none"
           id="path4121" /></g></g></g><g
     id="g4123"
     transform="matrix(1.3333333,0,0,-1.3333333,-1840.5661,464.74954)"><g
       id="g4125"
       clip-path="url(#clipPath4129)"><g
         id="g4131"
         transform="translate(429.0869,77.1875)"><path
           d="m 0,0 c -0.752,0.311 -2.021,1.19 -2.303,1.337 -0.348,0.178 -0.764,1.035 -1.614,1.288 0.089,0.198 0.293,0.386 0.75,0.433 0.592,0.072 1.191,0.447 1.331,1.052 0.003,0.028 -0.011,0.047 -0.03,0.057 C -1.885,4.19 -1.912,4.19 -1.932,4.185 -2.2,4.106 -2.72,3.925 -3.265,3.956 -4.19,4.017 -5.598,4.106 -5.762,2.524 c -0.438,0 -1.036,0.041 -1.727,0.2 -0.046,0.018 -0.113,0.013 -0.157,-0.008 -0.041,-0.031 -0.073,-0.067 -0.067,-0.1 0.015,-0.202 0.067,-0.553 0.251,-0.918 0.107,-0.203 0.256,-0.421 0.461,-0.62 0.158,-0.145 0.352,-0.275 0.588,-0.388 0,0 -0.904,-0.187 -0.951,-0.304 -0.34,-0.254 -0.675,-0.539 -1.006,-0.867 0.338,-2.167 2.209,-3.831 4.468,-3.831 0.15,0 0.302,0.016 0.438,0.026 l 0.075,2.042 c 0.033,0.087 0.112,0.136 0.205,0.136 0.994,-0.024 3.051,0.263 3.438,1.217 L 0.32,-0.586 C 0.425,-0.299 0.284,-0.117 0,0 m -3.635,0.644 c -0.176,0 -0.322,0.148 -0.322,0.318 0,0.182 0.146,0.32 0.322,0.32 0.182,0 0.322,-0.138 0.322,-0.32 0,-0.17 -0.14,-0.318 -0.322,-0.318"
           style="fill:#254ba1;fill-opacity:1;fill-rule:nonzero;stroke:none"
           id="path4133" /></g></g></g></g></svg>
