<svg width="487.408" height="257.157" xmlns="http://www.w3.org/2000/svg"><defs><clipPath clipPathUnits="userSpaceOnUse" id="a"><path d="M0 1207.56h858.898V0H0z"/></clipPath><clipPath clipPathUnits="userSpaceOnUse" id="b"><path d="M368.129 21.155h125.043v65.973H368.129z"/></clipPath><clipPath clipPathUnits="userSpaceOnUse" id="c"><path d="M0 1207.56h858.898V0H0z"/></clipPath></defs><g clip-path="url(#a)" transform="matrix(3.8979 0 0 -3.8979 -1434.931 339.617)" fill="#254ba1"><path d="M382.599 29.939l-.187-1.078s-1.886-2.254-4.17-2.254c-2.497.023-2.074 2.47-2.074 2.47l.81 4.774c-2.702-.022-4.028-.468-4.63-.761l-1.078-6.207h-3.141l2.608 15.007s.117.486-.258.486h-.722l.283 1.592h4.193l-1.401-7.975h4.52l1.404 7.974h3.12s-2.45-14.098-2.545-14.68c-.297-1.73 3.268.652 3.268.652"/><path d="M394.802 29.939l-.183-1.078s-1.885-2.281-4.194-2.281c-1.07.027-1.61.492-1.866 1.008-.833-.633-1.77-.981-2.727-.981-2.65 0-4.405 2.868-3.892 6.407.513 3.561 3.1 6.428 5.758 6.428.888 0 1.68-.327 2.302-.861l.12.58h3.148s-1.654-9.507-1.728-9.902c-.296-1.701 3.262.68 3.262.68m-7.36-1.308c.304 0 .606.094.915.23v.216l1.443 8.203c-.375.35-.797.552-1.284.552-1.54 0-3.03-2.045-3.336-4.583-.3-2.54.702-4.618 2.262-4.618"/><path d="M401.144 30.5l-.21-1.095s-1.214-1.449-2.818-2.263c4.655-2.284 1.585-5.987-2.661-5.987-2.493.02-2.076 2.471-2.076 2.471l3.36 19.196s.136.492-.258.492h-.722l.283 1.58h4.193-.023.023s-1.68-9.641-2.776-15.893c.818-.674 3.685 1.499 3.685 1.499m-4.076-3.8c-.31-1.654-.491-2.756-.52-2.896.349-.881 1.846.056 1.909 1.242.077 1.049-1.09 1.533-1.39 1.654"/><path d="M403.356 30.333c1.305-2.816 5.777-2.049 8.853 1.256-.042.047 0-1.326-.071-1.721-1.325-1.584-3.684-3.26-7.008-3.26-3.081 0-6.04 1.601-5.292 6.453.555 3.543 3.192 6.241 6.313 6.405 1.935.07 4.709-.975 4.334-4.164-.397-3.428-7.13-4.969-7.13-4.969m4.473 6.084c-.162.744-.955 1.236-1.723 1.067-.91-.187-1.562-.975-2.023-1.725-.68-1.111-1.08-2.417-.937-3.75 1.278.349 2.333.724 3.494 1.514.677.469 1.144 1.404 1.214 2.263.025.207 0 .422-.024.631"/><path d="M423.764 29.939l-.182-1.096s-1.89-2.263-4.193-2.263c-2.47.05-2.049 2.497-2.049 2.497.457 2.77 1.25 7.292 1.327 7.686.274 1.52-2.45-.046-3.059-.416l-1.626-9.463h-3.146l1.768 10.208s.118.462-.257.462h-.724l.285 1.608h4.191l-.14-.77c.492.307 1.935 1.05 3.796 1.05 2.496-.023 2.073-2.464 2.073-2.464l-1.326-7.72c-.305-1.7 3.262.68 3.262.68"/><path d="M436.022 30.028l-.207-1.187s-1.563-2.235-3.872-2.235c-1.325 0-1.817.998-1.91 1.186a245.283 245.283 0 00-1.862 5.24 24.315 24.315 0 01-.982-.416l-.976-5.733h-3.15l2.755 15.94s.117.491-.258.491h-.726l.283 1.58h4.196l-1.656-9.554c.79.584 2.448 1.915 3.473 3.821h3.333c-.375-1.982-2.006-3.54-3.662-4.658l1.818-5.196c.818-1.79 3.404.721 3.404.721"/><path d="M447.574 29.939l-.182-1.078s-1.893-2.281-4.196-2.281c-1.074.027-1.607.492-1.865 1.008-.834-.633-1.77-.981-2.726-.981-2.653 0-4.4 2.868-3.89 6.407.51 3.561 3.098 6.428 5.754 6.428.883 0 1.68-.327 2.305-.861l.117.58h3.15s-1.653-9.507-1.729-9.902c-.3-1.701 3.262.68 3.262.68m-7.362-1.308c.306 0 .605.094.91.23v.216l1.45 8.203c-.374.35-.792.552-1.284.552-1.539 0-3.033-2.045-3.336-4.583-.297-2.54.7-4.618 2.26-4.618m.701 11.468c-.789 0-1.3.627-1.164 1.416.138.796.888 1.448 1.678 1.448.793 0 1.326-.652 1.187-1.449-.14-.789-.909-1.416-1.7-1.416m3.913 0c-.793 0-1.306.628-1.186 1.417.138.796.907 1.448 1.7 1.448.791 0 1.303-.652 1.163-1.449-.138-.789-.885-1.416-1.677-1.416"/><path d="M455.94 27.98c-1.418-1.65-10.044-2.775-9.39 1.865.212 1.469 2.869 2.422 3.847 2.77-.07.117-2.074 2.4-2.637 3.307-.506.84-.277 2.008.583 2.618.675.44 2.054 1.558 8.019.391-.05-.327-.354-1.862-.422-2.232-.187.135-3.191 1.133-4.26.855-1.027-.259.022-1.56.395-2.052.77-.998 3.33-4.26 3.982-5.12.513-.702.424-1.75-.117-2.403m-3.053 1.237c-.07.117-.693.982-1.422 1.98-3.281-1.256-1.511-3.076.166-3.03 1.118.042 1.748.282 1.256 1.05"/><path d="M460.226 30.333c1.306-2.816 5.777-2.049 8.858 1.256-.046.047 0-1.326-.078-1.721-1.321-1.584-3.674-3.26-7.01-3.26-3.074 0-6.03 1.601-5.287 6.453.563 3.543 3.192 6.241 6.312 6.405 1.936.07 4.706-.975 4.335-4.164-.4-3.428-7.13-4.969-7.13-4.969m4.477 6.084c-.164.744-.96 1.236-1.723 1.067-.911-.187-1.566-.975-2.032-1.725-.672-1.111-1.07-2.417-.93-3.75 1.283.349 2.33.724 3.495 1.514.675.469 1.14 1.404 1.208 2.263.023.207 0 .422-.018.631"/><path d="M476.75 39.442c-.076-.328-.283-1.7-.399-2.28-2.423 0-3.472-.587-3.914-1.099l-1.589-9.18h-3.143l1.774 10.208s.113.486-.262.486h-.723l.279 1.586h4.196l-.139-.723c.723.516 1.936 1.002 3.92 1.002"/></g><g clip-path="url(#b)" transform="matrix(3.8979 0 0 -3.8979 -1434.931 339.617)" fill="#254ba1"><path d="M478.728 30.333c1.303-2.816 5.771-2.049 8.85 1.256-.046.047 0-1.326-.068-1.721-1.33-1.584-3.682-3.26-7.011-3.26-3.077 0-6.039 1.601-5.289 6.453.555 3.543 3.192 6.241 6.313 6.405 1.93.07 4.703-.975 4.334-4.164-.395-3.428-7.129-4.969-7.129-4.969m4.47 6.084c-.163.744-.953 1.236-1.726 1.067-.908-.187-1.558-.975-2.022-1.725-.68-1.111-1.076-2.417-.938-3.75 1.283.349 2.331.724 3.498 1.514.673.469 1.144 1.404 1.213 2.263.028.207 0 .422-.026.631"/><path d="M491.632 39.161s-1.605-9.29-1.723-9.874c-.304-1.729 3.264.653 3.264.653l-.187-1.08s-1.867-2.254-4.172-2.254c-2.496.024-2.075 2.47-2.075 2.47l1.398 8.015s.117.464-.258.464h-.715l.276 1.606zm-1.304.605c-.794 0-1.327.631-1.186 1.427.137.79.885 1.442 1.677 1.442.79 0 1.328-.652 1.187-1.442-.14-.796-.907-1.427-1.678-1.427M443.58 81.828v3.604c0 .937-.763 1.696-1.7 1.696h-22.457a1.7 1.7 0 01-1.7-1.696V67.238c0-2.23.566-4.324 1.562-6.152a12.8 12.8 0 011.607-2.312 12.883 12.883 0 019.757-4.46c3.92 0 7.43 1.747 9.803 4.507.356.418.68.846.98 1.295a12.835 12.835 0 012.143 6.865c.005.088.005.174.005.257v7.898a3.347 3.347 0 000 6.692m-8.583.032a2.07 2.07 0 100-4.142 2.075 2.075 0 00-2.074 2.072c0 1.142.933 2.07 2.074 2.07m2.867-6.635a1.814 1.814 0 100-3.626c-.996 0-1.81.808-1.81 1.814 0 1.008.814 1.812 1.81 1.812m-4.456-2.929a1.116 1.116 0 10-.008-2.234 1.116 1.116 0 00.008 2.234m-14.095 13.136c0 .052.054.104.11.104h11.226V68.634a7.291 7.291 0 01-.439-.27c-.373-.254-.617-.412-1.197-.412-.578 0-.829.158-1.199.411-.457.298-1.018.67-2.077.67-1.06 0-1.62-.372-2.08-.67-.368-.253-.614-.41-1.192-.41-.577 0-.829.157-1.198.41-.434.286-.978.633-1.954.665zm11.336-29.526c-2.748 0-5.273.99-7.237 2.625.491.126.833.352 1.132.548.371.254.615.413 1.193.413.576 0 .822-.164 1.197-.413.453-.293 1.021-.668 2.08-.668 1.057 0 1.624.375 2.075.668.373.25.617.413 1.197.413.576 0 .823-.159 1.198-.413.451-.293 1.02-.668 2.077-.668 1.061 0 1.621.375 2.08.668.374.25.62.413 1.198.413h.07a11.293 11.293 0 00-8.26-3.586m9.381 4.978a3.253 3.253 0 01-1.19.202c-1.06 0-1.628-.375-2.08-.674-.375-.245-.62-.41-1.199-.41-.576 0-.829.165-1.198.41-.454.3-1.019.674-2.077.674-1.06 0-1.626-.375-2.076-.674-.373-.245-.617-.41-1.197-.41-.578 0-.829.165-1.199.41-.452.3-1.018.674-2.077.674-1.06 0-1.62-.375-2.08-.674-.368-.245-.614-.41-1.192-.41-.252 0-.434.03-.594.085a11.345 11.345 0 00-1.838 3.187c.117-.06.225-.136.354-.22.452-.3 1.013-.676 2.078-.676 1.06 0 1.62.375 2.08.676.37.253.614.412 1.192.412.576 0 .822-.159 1.197-.412.453-.3 1.021-.676 2.08-.676 1.057 0 1.624.375 2.075.676.373.253.617.412 1.197.412.576 0 .823-.159 1.198-.412.451-.3 1.02-.676 2.077-.676 1.061 0 1.621.375 2.08.676.374.253.62.412 1.198.412s.824-.159 1.196-.412c.253-.163.545-.35.938-.492a11.914 11.914 0 00-.943-1.678m1.92 5.478a11.358 11.358 0 00-.422-2.305c-.22.07-.396.182-.614.328-.45.304-1.017.68-2.075.68-1.059 0-1.627-.376-2.079-.68-.375-.249-.62-.41-1.199-.41-.576 0-.829.161-1.198.41-.454.304-1.019.68-2.077.68-1.06 0-1.626-.376-2.076-.68-.373-.249-.617-.41-1.197-.41-.578 0-.829.161-1.199.41-.452.304-1.018.68-2.077.68-1.06 0-1.62-.376-2.08-.68-.368-.249-.614-.41-1.192-.41-.577 0-.829.161-1.198.41-.4.266-.893.596-1.732.657a11.067 11.067 0 00-.222 2.196v.198c.496-.017.733-.183 1.074-.404.452-.298 1.013-.673 2.078-.673 1.06 0 1.62.375 2.075.673.375.244.62.404 1.197.404.576 0 .828-.16 1.197-.404.453-.298 1.021-.673 2.08-.673 1.057 0 1.624.375 2.075.673.373.244.617.404 1.197.404.58 0 .826-.16 1.198-.404.451-.298 1.02-.673 2.077-.673 1.061 0 1.621.375 2.08.673.374.244.62.404 1.198.404s.824-.16 1.196-.404c.43-.285.962-.633 1.915-.67m-2.334 16.46a1.11 1.11 0 00-1.109 1.11c0 .624.497 1.12 1.11 1.12a1.12 1.12 0 001.124-1.12c0-.615-.504-1.11-1.125-1.11"/></g><g clip-path="url(#c)" transform="matrix(3.8979 0 0 -3.8979 -1434.931 339.617)"><path d="M429.087 77.188c-.752.31-2.021 1.19-2.303 1.336-.348.179-.764 1.036-1.614 1.289.089.197.293.385.75.432.592.073 1.19.448 1.33 1.053a.055.055 0 01-.03.057c-.018.023-.045.023-.065.018-.268-.08-.788-.26-1.333-.23-.925.062-2.333.15-2.497-1.431a7.68 7.68 0 00-1.727.2.218.218 0 01-.157-.008c-.041-.031-.073-.067-.067-.1a2.49 2.49 0 01.25-.918c.108-.203.257-.421.462-.62.158-.145.352-.275.588-.388 0 0-.904-.187-.951-.304a9.5 9.5 0 01-1.006-.867 4.53 4.53 0 014.468-3.831c.15 0 .302.015.438.025l.075 2.043a.21.21 0 00.205.135c.994-.023 3.05.264 3.438 1.218l.066.304c.105.288-.036.47-.32.587m-3.635.643a.325.325 0 00-.322.319c0 .181.146.32.322.32a.315.315 0 00.322-.32c0-.17-.14-.319-.322-.319" fill="#254ba1"/></g></svg>